<svg xmlns="http://www.w3.org/2000/svg" viewBox="0 0 24 24" fill="none">
  <path d="M7 2.75h7.7L20.5 8.55v11.7A1.75 1.75 0 0 1 18.75 22H7a1.75 1.75 0 0 1-1.75-1.75V4.5C5.25 3.53 6.03 2.75 7 2.75Z" fill="#1FAE69"/>
  <path d="M14.7 2.75v4.3c0 .97.78 1.75 1.75 1.75h4.05" fill="#66D89D"/>
  <path d="M8.3 14.2h1.5c1.15 0 1.84-.7 1.84-1.77 0-1.07-.7-1.73-1.84-1.73H8.3v3.5Zm.86-2.77h.53c.6 0 .95.34.95.98s-.35 1-.95 1h-.53v-1.98Zm3.22 2.77h.88v-1.36h1.6v-.76h-1.6v-.92h1.82v-.76h-2.7v3.8Zm3.18 0h1.08c1.3 0 2.11-.72 2.11-1.9s-.8-1.9-2.11-1.9h-1.08v3.8Zm.87-.74v-2.31h.19c.78 0 1.32.39 1.32 1.16 0 .78-.54 1.15-1.32 1.15h-.19Z" fill="#F6FFF9"/>
</svg>
