<svg xmlns="http://www.w3.org/2000/svg" viewBox="0 0 256 256">
  <defs>
    <linearGradient id="bg" x1="24" y1="20" x2="232" y2="236" gradientUnits="userSpaceOnUse">
      <stop offset="0" stop-color="#7ec9ff"/>
      <stop offset="0.55" stop-color="#4a8eff"/>
      <stop offset="1" stop-color="#315be0"/>
    </linearGradient>
    <linearGradient id="paper" x1="70" y1="48" x2="186" y2="198" gradientUnits="userSpaceOnUse">
      <stop offset="0" stop-color="#ffffff"/>
      <stop offset="1" stop-color="#e7f0ff"/>
    </linearGradient>
    <linearGradient id="fold" x1="154" y1="58" x2="190" y2="94" gradientUnits="userSpaceOnUse">
      <stop offset="0" stop-color="#c8ddff"/>
      <stop offset="1" stop-color="#a6c5ff"/>
    </linearGradient>
  </defs>

  <rect x="18" y="18" width="220" height="220" rx="56" fill="url(#bg)"/>
  <rect x="26" y="26" width="204" height="204" rx="48" fill="none" stroke="#ffffff" stroke-opacity="0.36" stroke-width="2"/>

  <path d="M70 52h86l30 30v122c0 9.9-8.1 18-18 18H70c-9.9 0-18-8.1-18-18V70c0-9.9 8.1-18 18-18z" fill="url(#paper)"/>
  <path d="M156 52v18c0 8.8 7.2 16 16 16h18z" fill="url(#fold)"/>

  <rect x="76" y="104" width="104" height="9" rx="4.5" fill="#5b82da" fill-opacity="0.55"/>
  <rect x="76" y="124" width="88" height="9" rx="4.5" fill="#5b82da" fill-opacity="0.44"/>
  <rect x="76" y="144" width="72" height="9" rx="4.5" fill="#5b82da" fill-opacity="0.36"/>

  <circle cx="188" cy="70" r="12" fill="#ffd45f"/>
  <path d="M188 62l2.6 5.3 5.8.8-4.2 4.1 1 5.8-5.2-2.7-5.2 2.7 1-5.8-4.2-4.1 5.8-.8z" fill="#fff7d0"/>
</svg>
